<svg width="64" height="64" viewBox="0 0 64 64" fill="none" xmlns="http://www.w3.org/2000/svg">
  <path fill-rule="evenodd" clip-rule="evenodd" d="M27.0199 0.506625C24.3034 2.32063 22.7318 5.80875 23.3 8.76225C24.0888 12.862 27.4206 15.75 31.3619 15.75C34.8681 15.75 37.891 13.6978 39.1869 10.4375C39.3783 9.95625 39.5305 9.4035 39.5255 9.20912C39.5073 8.51388 38.8353 7.91987 38.439 8.24875C38.3433 8.32825 38.1126 8.797 37.9266 9.29037C37.2035 11.2079 36.5265 12.1276 35.2039 12.9894C32.3705 14.8354 29.1283 14.5374 26.8193 12.2186C25.7855 11.1807 25.2236 10.1629 24.9389 8.8125C24.7071 7.71362 24.7069 7.16162 24.9375 6.07275C25.3321 4.21037 26.5415 2.6215 28.3424 1.59987C29.6818 0.84 31.5446 0.674625 33.4898 1.14275C34.1015 1.29 34.6921 1.376 34.8021 1.33375C35.1336 1.2065 35.3133 0.67575 35.1478 0.3125L35.0054 0H31.3919H27.7785L27.0199 0.506625ZM30.4155 3.55487C29.3433 3.89025 28.4445 4.66362 28.0099 5.625C27.8228 6.03875 27.7551 6.452 27.754 7.1875C27.752 8.46663 28.0748 9.20687 28.9951 10.0344C31.279 12.0879 34.9219 10.6505 35.2084 7.583C35.3283 6.29862 35.0233 5.47788 34.0836 4.55613C33.4474 3.93213 33.1799 3.76275 32.5543 3.58737C31.6658 3.3385 31.1336 3.33037 30.4155 3.55487ZM30.5011 5.23187C29.3633 5.84212 28.9413 7.14812 29.5279 8.24337C30.2575 9.60563 32.2678 9.77938 33.1973 8.56075C33.6948 7.90863 33.7633 6.78212 33.3489 6.07188C32.7994 5.13025 31.4389 4.729 30.5011 5.23187ZM17.0131 12.0729C15.4571 12.4913 14.1429 13.6035 13.6244 14.9406C13.3811 15.568 13.3296 15.9587 13.3028 17.3816C13.285 18.3134 13.2341 19.2703 13.1895 19.508C13.0898 20.0394 13.2975 20.6281 13.6139 20.7109C13.7639 20.7501 13.9438 21.0301 14.1079 21.48C14.6339 22.9216 15.6581 24.1219 16.875 24.723C17.4501 25.007 17.7264 25.0625 18.5651 25.0625C19.4426 25.0625 19.6703 25.0121 20.3888 24.6583C20.8948 24.4093 21.4529 23.9971 21.843 23.5846C22.4558 22.9368 23.25 21.5841 23.25 21.1884C23.25 21.0819 23.389 20.9312 23.5589 20.8539C24.0154 20.6459 24.1763 20.0297 24.0199 19.0875C23.9493 18.6612 23.8553 17.5812 23.8111 16.6875C23.7436 15.321 23.6815 14.9588 23.4209 14.4108C22.507 12.4888 19.5195 11.3988 17.0131 12.0729ZM42.2825 12.1792C40.543 12.7426 39.4538 13.761 38.9871 15.2604C38.7915 15.8891 38.7521 16.3864 38.7625 18.1049C38.7765 20.4557 38.8264 20.7498 39.2464 20.9591C39.4306 21.051 39.6434 21.3616 39.8035 21.7726C40.2065 22.8071 40.4291 23.1495 41.1181 23.7939C42.0894 24.7024 42.9626 25.0629 44.1881 25.0609C45.3039 25.0591 46.1195 24.7511 47.0496 23.9802C47.6044 23.5204 48.4144 22.3291 48.6359 21.6472C48.718 21.3944 48.9808 20.9691 49.2199 20.7021C49.6318 20.2421 49.649 20.1865 49.5508 19.6396C49.4938 19.3223 49.4633 18.4594 49.4831 17.7221C49.542 15.532 49.238 14.5312 48.1934 13.4749C46.7673 12.0326 44.3626 11.5056 42.2825 12.1792ZM21.4375 17.1516C20.7438 17.6066 19.0688 18.353 18.2945 18.5524C17.4208 18.7773 16.0541 18.8119 15.5544 18.6219L15.2175 18.4939L15.277 19.4656C15.3905 21.3211 16.4843 22.9749 17.8905 23.4172C18.3279 23.5549 18.728 23.6053 18.9524 23.5513C20.4039 23.2016 21.5685 21.7936 21.9986 19.8685C22.1713 19.096 22.1301 17.2 21.9369 17.021C21.8595 16.9494 21.6706 16.9987 21.4375 17.1516ZM46.125 17.5702C44.7401 18.4016 43.725 18.6825 42.0939 18.6852L40.7501 18.6875V19.1695C40.75 19.8475 41.0901 21.0963 41.436 21.6875C42.1485 22.9054 43.4371 23.7174 44.4091 23.561C46.3584 23.2474 47.7058 20.925 47.5995 18.0616C47.5533 16.8146 47.4441 16.7784 46.125 17.5702ZM30.625 18.3873C30.1094 18.4345 29.5326 18.5341 29.3434 18.6086C27.7963 19.2176 26.9335 19.9139 26.4133 20.9732C26.0674 21.6775 26.063 21.7155 26.0985 23.6828C26.1206 24.9086 26.0786 25.8968 25.9895 26.2453C25.8689 26.7175 25.8783 26.8929 26.0456 27.2925C26.1563 27.5565 26.3568 27.8013 26.4913 27.8365C26.6406 27.8755 26.7688 28.0535 26.8208 28.294C27.086 29.5212 28.4589 31.1303 29.819 31.808C31.3075 32.5496 32.9034 32.2369 34.3729 30.9156C35.1629 30.2054 35.6555 29.5004 35.9299 28.6875C36.0459 28.3438 36.2945 27.8937 36.4824 27.6875L36.8239 27.3125L36.8183 24.4375C36.8126 21.6261 36.8056 21.5486 36.5 20.9384C35.5703 19.0818 33.3876 18.1339 30.625 18.3873ZM34.625 23.4382C34.1151 23.9659 32.7586 24.6614 31.6875 24.9444C31.275 25.0534 30.2203 25.1749 29.3438 25.2143L27.75 25.2859V26.1419C27.75 26.8625 27.7895 27.0226 28 27.154C28.1375 27.2399 28.25 27.4126 28.25 27.5379C28.25 27.9685 28.9211 29.1356 29.4479 29.6211C30.2511 30.3616 30.9349 30.6679 31.5853 30.5788C32.9005 30.3985 33.9395 29.413 34.6684 27.6546L35.1321 26.536L35.0973 24.7607L35.0625 22.9855L34.625 23.4382ZM17.6171 27.1383C16.9195 27.1853 15.931 27.3599 15.2434 27.5576C12.1376 28.4513 10.5104 29.8972 10.2991 31.9514C10.2338 32.5871 10.2605 32.7344 10.4958 33.0312L10.7681 33.375H18.6313H26.4943L26.7014 33.0588C26.9986 32.6053 26.8805 31.3741 26.4601 30.5446C25.7325 29.1086 23.5316 27.7975 21.0625 27.329C19.7468 27.0794 19.0585 27.0413 17.6171 27.1383ZM43.125 27.0731C42.9531 27.1033 42.475 27.1865 42.0625 27.258C39.6305 27.6797 37.3495 28.938 36.487 30.3336C36.1878 30.8178 35.8786 31.8846 35.8765 32.4409C35.8756 32.6491 35.9626 32.9444 36.0696 33.0971L36.2641 33.375H44.1231C52.6929 33.375 52.2671 33.4106 52.4513 32.6771C52.567 32.2157 52.3865 31.2644 52.0614 30.6229C51.1151 28.7554 47.9483 27.2376 44.6653 27.078C43.99 27.0451 43.2969 27.043 43.125 27.0731ZM29.084 34.5709C26.1285 35.0306 23.9501 36.0565 23.0015 37.4354C21.9638 38.9436 21.7373 40.084 22.3438 40.7467L22.6875 41.1224L30.9375 41.2028C39.6221 41.2875 39.9664 41.2706 40.4489 40.7374C40.847 40.2975 40.7748 39.2345 40.2783 38.2259C39.5479 36.7425 38.0344 35.6452 35.9023 35.0537C33.476 34.3806 31.2981 34.2264 29.084 34.5709ZM11.55 52.55C11.5095 52.6554 11.4958 53.8031 11.5195 55.1005L11.5625 57.4594L11.9299 57.9891C12.4526 58.7432 13.0933 59.0391 14.0685 58.977C14.6825 58.9379 14.9425 58.8531 15.3111 58.572C16.1414 57.9387 16.2441 57.5229 16.2473 54.7812L16.25 52.375H15.8125H15.375L15.3743 54.5938C15.3739 55.814 15.3158 57.0209 15.245 57.2756C15.0688 57.9101 14.604 58.25 13.9124 58.25C12.6244 58.25 12.4555 57.8724 12.375 54.8125L12.3125 52.4375L11.968 52.3979C11.7461 52.3724 11.5974 52.4265 11.55 52.55ZM39.8359 53.7256C39.6511 53.9184 39.5 54.1996 39.5 54.3506C39.5 54.5416 39.4241 54.625 39.25 54.625C39.0834 54.625 39 54.7084 39 54.875C39 55.0416 39.0834 55.125 39.25 55.125C39.4838 55.125 39.5 55.2086 39.5008 56.4062C39.5019 58.4761 39.8055 59.0615 40.8343 58.9769C41.2481 58.9427 41.3178 58.8924 41.3513 58.6022C41.3856 58.3046 41.3435 58.2625 40.9763 58.2272L40.5625 58.1875L40.5 56.7241L40.4375 55.2607L40.875 55.2241C41.2681 55.1912 41.3165 55.1464 41.3516 54.7812C41.3866 54.4184 41.3566 54.375 41.0704 54.375C40.8943 54.375 40.75 54.4313 40.75 54.5C40.75 54.5687 40.6938 54.625 40.625 54.625C40.5563 54.625 40.5 54.3438 40.5 54C40.5 53.2675 40.3386 53.2009 39.8359 53.7256ZM23.5755 54.5047C23.1069 54.645 22.5151 55.205 22.2971 55.7147C22.0288 56.342 22.077 57.4431 22.398 58.0143C22.9338 58.9674 24.3585 59.2864 25.0748 58.6135L25.375 58.3314V58.7406C25.375 59.3275 25.0261 59.9801 24.5924 60.2044C24.2254 60.3941 23.6368 60.3872 22.8438 60.184C22.5488 60.1084 22.5 60.1336 22.5 60.3623C22.5 60.7508 23.1845 61.124 23.8981 61.1245C24.6233 61.1251 25.0851 60.9567 25.5343 60.5284C26.1078 59.9811 26.25 59.226 26.25 56.7272C26.25 54.7294 26.2285 54.5 26.0411 54.5C25.9263 54.5 25.732 54.5906 25.6095 54.7015C25.404 54.8875 25.3449 54.8828 24.8415 54.639C24.2516 54.3535 24.1258 54.3401 23.5755 54.5047ZM32.5391 54.5083C32.0681 54.6499 31.625 55.1663 31.625 55.5735C31.625 56.0749 31.8709 56.4333 32.5176 56.8746C33.2575 57.3795 33.4368 57.6511 33.2545 57.9915C33.0845 58.3094 32.7233 58.4136 32.1363 58.3144C31.746 58.2485 31.6423 58.2747 31.5723 58.4572C31.4465 58.7849 31.8214 59 32.518 59C33.2994 59 33.6949 58.8062 33.9315 58.3075C34.3254 57.4774 34.1048 56.9645 33.0735 56.3126C32.3644 55.8644 32.235 55.5406 32.6356 55.2163C32.8659 55.0299 33.0418 54.9966 33.464 55.0599C33.8843 55.123 34 55.1015 34 54.9605C34 54.5389 33.2301 54.3005 32.5391 54.5083ZM18.7783 54.7505C18.2876 55.0495 18.25 55.054 18.25 54.8125C18.25 54.6815 18.118 54.625 17.8125 54.625H17.375V56.7575V58.8901L17.8438 58.8512L18.3125 58.8125L18.3475 57.2996C18.3795 55.9125 18.406 55.7645 18.666 55.5202C19.091 55.1209 19.6336 55.0532 20.0046 55.3534C20.299 55.5914 20.3143 55.6744 20.3536 57.2386L20.3949 58.875H20.743C21.0623 58.875 21.0976 58.8271 21.1705 58.295C21.4078 56.5644 21.1368 55.0835 20.5158 54.7168C20.0281 54.4286 19.2824 54.4431 18.7783 54.7505ZM28.0258 54.7679C27.4361 55.1454 27.125 55.8305 27.125 56.7513C27.125 57.6031 27.294 58.0127 27.872 58.5625C28.2351 58.9079 28.3473 58.9404 29.2894 58.9735C30.4255 59.0135 30.7723 58.8928 30.5486 58.5348C30.4368 58.3559 30.2751 58.3206 29.7191 58.3544C28.8936 58.4044 28.3401 58.1617 28.0646 57.6291C27.6861 56.8971 27.7245 56.875 29.375 56.875H30.875V56.371C30.875 55.1992 30.1963 54.4996 29.0625 54.5026C28.6424 54.5036 28.3025 54.5906 28.0258 54.7679ZM35.7801 54.7494C35.0958 55.1665 34.876 55.6686 34.8755 56.8159C34.875 57.8584 34.9945 58.1791 35.5586 58.6489C35.8984 58.9319 36.9219 59.1713 37.346 59.067C37.8659 58.9393 38.2511 58.6483 38.1724 58.443C38.1174 58.2998 37.9379 58.2769 37.3214 58.3345C36.5859 58.4031 36.5176 58.3864 36.1541 58.0475C35.9418 57.8495 35.7314 57.5047 35.6866 57.2812L35.6051 56.875H37.1151C38.5978 56.875 38.625 56.8699 38.6243 56.5938C38.6229 56.0134 38.3358 55.3107 37.9371 54.9121C37.5735 54.5485 37.4464 54.5 36.8563 54.5005C36.4096 54.5008 36.0521 54.5834 35.7801 54.7494ZM43.2501 54.6404C42.4295 54.9676 42 55.6974 42 56.764C42 57.3634 42.0701 57.6603 42.3075 58.0653C42.9316 59.1301 44.582 59.3976 45.4806 58.5794C45.9754 58.129 46.125 57.6953 46.125 56.7122C46.125 55.6344 45.8479 55.0834 45.1225 54.719C44.6486 54.4809 43.7453 54.443 43.2501 54.6404ZM47.3438 54.602L47 54.6416V56.8208V59H47.4375H47.875V57.6085C47.875 56.4256 47.9133 56.1551 48.1303 55.804C48.4716 55.2516 49.1341 55.0203 49.5653 55.3029C49.9535 55.5573 49.9944 55.7492 50.0318 57.5L50.0625 58.9375H50.4375H50.8125L50.8475 57.3486C50.888 55.5046 50.7525 55.012 50.1141 54.6819C49.6001 54.416 48.7848 54.4943 48.2734 54.8584C47.8066 55.1908 47.7758 55.1899 47.727 54.8438C47.6953 54.6179 47.6199 54.5703 47.3438 54.602ZM36.2188 55.135C35.9964 55.2645 35.625 55.8799 35.625 56.1188C35.625 56.2001 36.029 56.25 36.6875 56.25C37.6224 56.25 37.75 56.2232 37.75 56.0279C37.75 55.7985 37.4278 55.2575 37.1948 55.0956C37.0056 54.9643 36.4751 54.9857 36.2188 55.135ZM23.6551 55.2906C22.7973 55.7671 22.623 57.2139 23.3375 57.9284C23.7343 58.3251 24.4556 58.3647 24.8893 58.0136C25.1389 57.8115 25.1883 57.6395 25.2291 56.8299C25.2754 55.914 25.2645 55.8703 24.8981 55.5039C24.4945 55.1003 24.1151 55.0353 23.6551 55.2906ZM28.2861 55.4062C28.1446 55.561 27.9904 55.814 27.9435 55.9688C27.8594 56.246 27.8743 56.25 28.9916 56.25C30.2176 56.25 30.3035 56.1915 29.9135 55.6216C29.6198 55.1922 29.5018 55.1291 28.9905 55.1269C28.6849 55.1256 28.4621 55.214 28.2861 55.4062ZM43.637 55.2831C42.8794 55.6725 42.5994 56.6712 42.9878 57.5996C43.4436 58.6893 44.8741 58.5764 45.2555 57.4207C45.7149 56.029 44.7263 54.7234 43.637 55.2831Z" fill="black"/>
</svg>
